<svg width="113" height="113" viewBox="0 0 113 113" fill="none" xmlns="http://www.w3.org/2000/svg">
<mask id="mask0_60_3317" style="mask-type:alpha" maskUnits="userSpaceOnUse" x="0" y="0" width="113" height="113">
<rect width="112.645" height="112.094" fill="#D9D9D9"/>
</mask>
<g mask="url(#mask0_60_3317)">
<path opacity="0.4" d="M58.856 31.6217L9.1782 31.3687L34.1436 56.3341L9.43118 81.0465L59.109 81.2995L83.8214 56.5871L58.856 31.6217Z" fill="#FA9742"/>
<path opacity="0.4" d="M59.4291 31.6217L109.107 31.3687L84.1416 56.3341L108.854 81.0465L59.1762 81.2995L34.4637 56.5871L59.4291 31.6217Z" fill="#FA9742"/>
<path opacity="0.4" d="M83.8549 56.0435L84.1079 6.3657L59.1425 31.3311L34.4301 6.61867L34.1771 56.2965L58.8895 81.0089L83.8549 56.0435Z" fill="#FA9742"/>
<path opacity="0.4" d="M83.8549 56.6205L84.1079 106.298L59.1425 81.333L34.4301 106.045L34.1771 56.3676L58.8895 31.6551L83.8549 56.6205Z" fill="#FA9742"/>
<path d="M83.5645 56.333L58.8887 81.0098L34.4648 56.5859L59.1416 31.9102L83.5645 56.333Z" fill="#FA9742"/>
</g>
</svg>
